# xmcd CD database file
#
# Track frame offsets:
#	150
#	14912
#	26455
#	56295
#	77047
#	125132
#	145085
#	174140
#	191722
#	208592
#
# Disc length: 3401 seconds
#
# Revision: 2
# Processed by: cddbd v1.5.2PL0 Copyright (c) Steve Scherf et al.
# Submitted via: CDex 1.51
#
DISCID=860d470a
DTITLE=Various Artist - Soft Moments 1-2
DYEAR=1990
DGENRE=Jazz
TTITLE0=Thielemans, Toots - Bluesette
TTITLE1=Linden, Rick van der - Prelude 24 B Minor
TTITLE2=Coryell, Larry and Urbaniak, M - Nuages
TTITLE3=Dijk, Louis van - Lake at Sunset
TTITLE4=Schwab, Sigi - Sigi Schwab Solo Suite
TTITLE5=Mariano, Charlie and Catherine, Philip - Spanish Flower
TTITLE6=Linden, Rick van der - Prelude in D Flat Major
TTITLE7=Thielemans, Toots - Why did I choose you
TTITLE8=Schwab, Sigi - Soft Moments
TTITLE9=Dijk, Louis van - Duke Ellington Medley
EXTD=YEAR: 1990
EXTT0=
EXTT1=
EXTT2=
EXTT3=
EXTT4=
EXTT5=
EXTT6=
EXTT7=
EXTT8=
EXTT9=
PLAYORDER=
